# xmcd
# 
# Track frame offsets:
#     150
#     15437
#     31530
#     46797
#     64572
#     83807
#     98485
#     110836
#     123983
#     134330
# 
# Disc length: 2029
# 
# Revision: 0
# Processed by: cddbd v1.5.2PL0 Copyright (c) Steve Scherf et al.
# Submitted via: fre:ac v1.1beta1pre4
# 
DISCID=6e07eb0a
DTITLE=Strangebyrds - Devils and Desires
DYEAR=2015
DGENRE=Folk
TTITLE0=Howl At the Moon
TTITLE1=Missing You
TTITLE2=Devils and Desires
TTITLE3=Orphan Train
TTITLE4=Tender Majesty
TTITLE5=The Dream I Made
TTITLE6=White Dress
TTITLE7=Chasing Angels
TTITLE8=Owen Woods
TTITLE9=Where Have All the Hippies Gone
EXTD=
EXTT0=
EXTT1=
EXTT2=
EXTT3=
EXTT4=
EXTT5=
EXTT6=
EXTT7=
EXTT8=
EXTT9=
PLAYORDER=
